<svg version="1.0" xmlns="http://www.w3.org/2000/svg" width="512" height="512" viewBox="0 0 5120 5120"><path d="M2240 5105c-389-48-766-188-1091-404-504-335-871-825-1043-1395-41-132-81-333-96-468-13-125-13-431 0-556C118 1268 835 402 1814 106c132-41 333-81 468-96 125-13 431-13 556 0 592 63 1141 332 1563 766 289 299 494 645 613 1038 74 243 106 468 106 746 0 209-10 324-46 505-181 920-867 1676-1768 1949-132 41-333 81-468 96-131 14-469 11-598-5zm-417-1606c12-6 183-171 379-367l358-357 357 356c386 384 393 390 470 370 48-13 100-66 114-115 21-75 14-84-369-469l-357-357 367-368c394-395 391-392 368-471-13-47-66-99-112-112-80-21-83-19-475 373l-363 363-357-356c-386-384-393-390-470-370-47 13-100 65-113 112-23 79-25 76 364 467l361 362-357 358c-196 196-361 367-367 379-30 60 3 154 68 191 39 24 100 28 134 11z" fill="#b8d620"/></svg>